<svg width="101" height="31" viewBox="0 0 101 31" fill="none" xmlns="http://www.w3.org/2000/svg">
<path d="M62.0719 0.291706C61.3945 0.42939 61.4404 1.02602 62.1523 1.56528C63.2201 2.35695 63.7941 2.89621 63.9434 3.26337C64.0697 3.56168 64.1042 4.34188 64.1042 6.61366C64.1042 8.2429 64.0697 9.60826 64.0353 9.64268C64.0008 9.68858 63.4727 9.47058 62.8641 9.16079C60.7285 8.09375 58.214 8.08227 56.1702 9.10342C52.9668 10.7212 51.3364 15.0926 51.8072 20.8409C52.0712 24.1682 52.9783 26.5089 54.6202 28.1611C55.9636 29.5035 57.3414 30.0427 59.3966 30.0427C61.6815 30.0313 63.3004 29.2166 64.8275 27.2891L65.1375 26.8875L65.4016 27.2317C65.5394 27.4153 65.9642 27.8972 66.3431 28.2987C67.1239 29.1248 68.2261 29.7444 69.3284 29.9395C70.3273 30.123 72.6007 29.9968 73.4274 29.71C75.7811 28.8954 77.136 26.9678 77.3771 24.0535C77.4804 22.9176 77.3771 22.3784 77.0327 22.2292C76.5275 21.9997 76.3437 22.1833 75.7926 23.5601C75.4596 24.3977 75.0348 24.719 74.7019 24.3862C74.5067 24.1912 74.4952 23.5028 74.4378 12.5455L74.3804 0.899807L74.0589 0.590019L73.7489 0.268759L68.0309 0.257286C64.8964 0.245813 62.2097 0.257286 62.0719 0.291706ZM63.9664 12.1669C64.0697 12.2701 64.1042 13.8535 64.1042 18.5921V24.8796L63.8171 25.0632C63.3923 25.3386 63.0019 25.132 62.8412 24.5698C62.7493 24.2715 62.7263 22.3325 62.7493 18.3282C62.7837 12.7979 62.7952 12.4996 63.0019 12.2701C63.243 12.0062 63.7482 11.9489 63.9664 12.1669Z" fill="#FF542F"/>
<path d="M10.3234 2.68963C10.0364 2.97647 10.1053 3.27479 10.5531 3.619C11.7586 4.53688 12.3442 5.07614 12.5164 5.40888C12.7116 5.75308 12.7231 6.33824 12.7116 13.5781C12.7116 20.2442 12.6772 21.5293 12.5279 22.3668C12.1835 24.1797 11.6094 24.9484 10.6793 24.8337C9.86414 24.7419 9.43932 24.0535 9.65747 23.2388C9.71488 23.0208 10.0134 22.4701 10.3119 22.0226C11.0468 20.8867 11.2994 20.118 11.3683 18.7871C11.4831 16.7563 10.8056 15.368 9.25561 14.4386C7.56778 13.4289 4.86956 13.5551 3.23915 14.7254C2.19431 15.4712 1.45947 16.4235 0.977237 17.6282C0.690193 18.3511 0.678711 18.5002 0.678711 20.3475C0.678711 22.5848 0.839456 23.4798 1.45947 24.8222C2.37802 26.8186 3.64101 28.1381 5.50106 29.0559C6.63776 29.6181 7.26926 29.8132 8.76189 30.0541C12.2638 30.6278 16.1332 29.9394 18.9692 28.2528C21.5985 26.6809 23.3093 23.7551 23.6767 20.1983C23.7571 19.487 23.803 15.9416 23.803 11.3407C23.803 2.965 23.803 2.93058 23.1601 2.63227C22.9534 2.54048 21.0589 2.50606 16.6843 2.50606C11.219 2.50606 10.4842 2.52901 10.3234 2.68963Z" fill="#FF542F"/>
<path d="M87.3088 8.48384C85.6784 8.67889 83.715 9.30994 82.429 10.0672C78.5941 12.316 76.6881 16.9284 77.6641 21.6096C78.1693 24.0994 79.7767 26.5433 81.809 27.943C82.8424 28.6544 83.1409 28.8036 84.3235 29.2396C85.9539 29.8477 86.7921 29.9739 89.1344 29.9739C91.4996 29.9853 92.0393 29.905 93.7041 29.2625C96.6894 28.1266 98.7791 26.004 99.7436 23.1586C99.9617 22.516 100.157 20.8294 100.077 20.2902C100.042 20.0722 99.9387 19.7968 99.8354 19.6821C99.5254 19.3264 99.1695 19.4526 98.3543 20.1869C96.3449 21.9997 94.8523 22.5734 92.1311 22.5849C90.0989 22.5849 88.6866 22.1604 87.6303 21.2195C87.0791 20.7262 86.8954 20.0033 87.2399 19.7165C87.458 19.5329 87.3662 19.4985 88.6751 20.3705C89.9611 21.2425 90.4433 21.3687 92.4067 21.3687C93.9797 21.3687 94.1979 21.3457 94.8982 21.0704C96.6205 20.4164 97.8031 19.3952 98.5265 17.9495C99.0087 16.9858 99.1695 16.1138 99.0891 14.8976C98.9858 13.4634 98.5035 12.3734 97.4472 11.226C95.4149 9.03457 91.5685 7.99047 87.3088 8.48384ZM89.4444 10.6523C89.6396 11.0424 89.6511 16.8137 89.4559 17.2497C89.2837 17.6283 88.8703 17.7316 88.5029 17.4906L88.2158 17.307V13.9797C88.2158 11.0769 88.2388 10.6409 88.3996 10.4802C88.6866 10.2049 89.2722 10.2967 89.4444 10.6523Z" fill="#FF542F"/>
<path d="M24.7905 9.14922C24.5149 9.45901 24.6297 9.75732 25.2153 10.2163C25.4794 10.4228 25.7664 10.6752 25.8468 10.767C26.1568 11.1342 26.5931 11.9373 26.7079 12.3504C26.7768 12.6028 26.8572 15.322 26.9031 19.0854C26.9835 25.8777 26.9605 25.5794 27.6265 27.0824C28.1546 28.2642 29.3602 29.3198 30.6921 29.7673C31.4958 30.0426 34.1137 30.0771 34.9978 29.8246C36.2149 29.4804 37.1334 28.9182 38.1208 27.9085C38.626 27.3808 39.0968 26.9448 39.1542 26.9448C39.2001 26.9448 39.4183 27.2087 39.6364 27.5299C40.2679 28.4478 41.2324 29.1706 42.4954 29.6755C43.1958 29.9394 43.414 29.9738 44.9296 29.9738C46.8011 29.9853 47.3292 29.8591 48.5348 29.1936C50.349 28.1839 51.3134 26.394 51.4397 23.8354C51.4971 22.5848 51.4971 22.493 51.256 22.2521C51.1297 22.1259 50.9575 22.0111 50.9001 22.0111C50.6475 22.0111 50.2341 22.5619 50.0389 23.17C49.9241 23.5142 49.7404 23.9272 49.6141 24.0993C49.373 24.4435 48.9482 24.5238 48.7415 24.2714C48.6497 24.1682 48.6037 21.8964 48.5808 16.9513C48.5463 9.26396 48.5463 9.3328 47.9493 9.05743C47.5933 8.8968 39.4527 8.88533 39.0164 9.04596C38.3849 9.28691 38.3849 9.28691 38.3849 17.479V24.9943L38.0864 25.109C37.6731 25.2696 37.6042 25.2581 37.2942 24.9369L37.0071 24.6615V17.3069C37.0071 9.45901 36.9956 9.34427 36.456 9.05743C36.2952 8.96564 34.4007 8.93122 30.6003 8.93122C25.2038 8.93122 24.9742 8.9427 24.7905 9.14922Z" fill="#FF542F"/>
</svg>
